<mxfile host="65bd71144e">
    <diagram id="YP5KdScuAsrjVV64DlBZ" name="Página-1">
        <mxGraphModel dx="1202" dy="1504" grid="1" gridSize="10" guides="1" tooltips="1" connect="1" arrows="1" fold="1" page="1" pageScale="1" pageWidth="827" pageHeight="1169" math="0" shadow="0">
            <root>
                <mxCell id="0"/>
                <mxCell id="1" parent="0"/>
                <mxCell id="2" value="&lt;i&gt;Vehículo&lt;/i&gt;" style="swimlane;fontStyle=1;align=center;verticalAlign=top;childLayout=stackLayout;horizontal=1;startSize=26;horizontalStack=0;resizeParent=1;resizeParentMax=0;resizeLast=0;collapsible=1;marginBottom=0;whiteSpace=wrap;html=1;fillColor=#FFFF66;" parent="1" vertex="1">
                    <mxGeometry x="-351" y="-330" width="260" height="150" as="geometry">
                        <mxRectangle x="100" y="100" width="90" height="30" as="alternateBounds"/>
                    </mxGeometry>
                </mxCell>
                <mxCell id="3" value="- String modelo&lt;div&gt;- int numerointerno&lt;/div&gt;" style="text;strokeColor=none;fillColor=none;align=left;verticalAlign=top;spacingLeft=4;spacingRight=4;overflow=hidden;rotatable=0;points=[[0,0.5],[1,0.5]];portConstraint=eastwest;whiteSpace=wrap;html=1;" parent="2" vertex="1">
                    <mxGeometry y="26" width="260" height="34" as="geometry"/>
                </mxCell>
                <mxCell id="4" value="" style="line;strokeWidth=1;fillColor=none;align=left;verticalAlign=middle;spacingTop=-1;spacingLeft=3;spacingRight=3;rotatable=0;labelPosition=right;points=[];portConstraint=eastwest;strokeColor=inherit;" parent="2" vertex="1">
                    <mxGeometry y="60" width="260" height="8" as="geometry"/>
                </mxCell>
                <mxCell id="5" value="+ Vehiculo(String modelo)&lt;div&gt;&lt;font color=&quot;#000000&quot;&gt;+ void setNumerointerno(int numero)&lt;br&gt;&lt;/font&gt;&lt;div&gt;+ String getModelo&lt;/div&gt;&lt;div&gt;+ int getNumerointerno&lt;/div&gt;&lt;/div&gt;&lt;div&gt;&lt;i&gt;+&amp;nbsp;boolean aceptoChofer(Chofer chofer)&lt;/i&gt;&lt;/div&gt;" style="text;strokeColor=none;fillColor=none;align=left;verticalAlign=top;spacingLeft=4;spacingRight=4;overflow=hidden;rotatable=0;points=[[0,0.5],[1,0.5]];portConstraint=eastwest;whiteSpace=wrap;html=1;" parent="2" vertex="1">
                    <mxGeometry y="68" width="260" height="82" as="geometry"/>
                </mxCell>
                <mxCell id="6" value="Categoria" style="swimlane;fontStyle=1;align=center;verticalAlign=top;childLayout=stackLayout;horizontal=1;startSize=26;horizontalStack=0;resizeParent=1;resizeParentMax=0;resizeLast=0;collapsible=1;marginBottom=0;whiteSpace=wrap;html=1;fillColor=#3399FF;" parent="1" vertex="1">
                    <mxGeometry x="214" y="-730" width="460" height="290" as="geometry">
                        <mxRectangle x="390" y="50" width="90" height="30" as="alternateBounds"/>
                    </mxGeometry>
                </mxCell>
                <mxCell id="7" value="- String nombrecategoria&lt;div&gt;- double sueldo&lt;/div&gt;&lt;div&gt;- boolean habilitaColectivoLinea&lt;br&gt;- boolean habilitaColectivoLarga&lt;br&gt;- boolean habilitaCamion&amp;nbsp;&lt;/div&gt;" style="text;strokeColor=none;fillColor=none;align=left;verticalAlign=top;spacingLeft=4;spacingRight=4;overflow=hidden;rotatable=0;points=[[0,0.5],[1,0.5]];portConstraint=eastwest;whiteSpace=wrap;html=1;" parent="6" vertex="1">
                    <mxGeometry y="26" width="460" height="84" as="geometry"/>
                </mxCell>
                <mxCell id="8" value="" style="line;strokeWidth=1;fillColor=none;align=left;verticalAlign=middle;spacingTop=-1;spacingLeft=3;spacingRight=3;rotatable=0;labelPosition=right;points=[];portConstraint=eastwest;strokeColor=inherit;" parent="6" vertex="1">
                    <mxGeometry y="110" width="460" height="8" as="geometry"/>
                </mxCell>
                <mxCell id="9" value="+ Categoria(String nombrecategoria, double sueldo, boolean habilitaColectivoLinea, boolean habilitaColectivoLarga, boolean habilitaCamion)&lt;div&gt;+ void setSueldo(double sueldo)&lt;/div&gt;&lt;div&gt;+ double getSueldo()&lt;/div&gt;&lt;div&gt;+ String getNombrecategoria()&lt;/div&gt;&lt;div&gt;+ boolean isHabilitaColectivoLinea()&lt;/div&gt;&lt;div&gt;+ void setHabilitaColectivoLinea(&lt;span style=&quot;color: rgb(63, 63, 63); background-color: transparent;&quot;&gt;boolean habilitaColectivoLinea)&lt;/span&gt;&lt;/div&gt;&lt;div&gt;&lt;div&gt;+ boolean isHabilitaColectivoLargaDistancia()&lt;/div&gt;&lt;div&gt;+ void setHabilitaColectivoLargaDistancia(&lt;span style=&quot;color: rgb(63, 63, 63); background-color: transparent;&quot;&gt;boolean habilitaColectivoLargaDistancia)&lt;/span&gt;&lt;/div&gt;&lt;/div&gt;&lt;div&gt;&lt;div&gt;+ boolean isHabilitaCamion()&lt;/div&gt;&lt;div&gt;+ void setHabilitaCamion(&lt;span style=&quot;color: rgb(63, 63, 63); background-color: transparent;&quot;&gt;boolean habilitaCamion)&lt;/span&gt;&lt;/div&gt;&lt;/div&gt;" style="text;strokeColor=none;fillColor=none;align=left;verticalAlign=top;spacingLeft=4;spacingRight=4;overflow=hidden;rotatable=0;points=[[0,0.5],[1,0.5]];portConstraint=eastwest;whiteSpace=wrap;html=1;" parent="6" vertex="1">
                    <mxGeometry y="118" width="460" height="172" as="geometry"/>
                </mxCell>
                <mxCell id="10" value="Domicilio" style="swimlane;fontStyle=1;align=center;verticalAlign=top;childLayout=stackLayout;horizontal=1;startSize=26;horizontalStack=0;resizeParent=1;resizeParentMax=0;resizeLast=0;collapsible=1;marginBottom=0;whiteSpace=wrap;html=1;fillColor=#66FF66;" parent="1" vertex="1">
                    <mxGeometry x="699" y="-340" width="200" height="140" as="geometry">
                        <mxRectangle x="699" y="-340" width="90" height="30" as="alternateBounds"/>
                    </mxGeometry>
                </mxCell>
                <mxCell id="11" value="- String calle&lt;div&gt;- int numero&lt;/div&gt;" style="text;strokeColor=none;fillColor=none;align=left;verticalAlign=top;spacingLeft=4;spacingRight=4;overflow=hidden;rotatable=0;points=[[0,0.5],[1,0.5]];portConstraint=eastwest;whiteSpace=wrap;html=1;" parent="10" vertex="1">
                    <mxGeometry y="26" width="200" height="34" as="geometry"/>
                </mxCell>
                <mxCell id="12" value="" style="line;strokeWidth=1;fillColor=none;align=left;verticalAlign=middle;spacingTop=-1;spacingLeft=3;spacingRight=3;rotatable=0;labelPosition=right;points=[];portConstraint=eastwest;strokeColor=inherit;" parent="10" vertex="1">
                    <mxGeometry y="60" width="200" height="8" as="geometry"/>
                </mxCell>
                <mxCell id="13" value="+ Domicilio(String calle, int numero)&lt;div&gt;+ String getCalle()&lt;/div&gt;&lt;div&gt;+ int getNumero()&lt;/div&gt;&lt;div&gt;+ String toString()&lt;/div&gt;" style="text;strokeColor=none;fillColor=none;align=left;verticalAlign=top;spacingLeft=4;spacingRight=4;overflow=hidden;rotatable=0;points=[[0,0.5],[1,0.5]];portConstraint=eastwest;whiteSpace=wrap;html=1;" parent="10" vertex="1">
                    <mxGeometry y="68" width="200" height="72" as="geometry"/>
                </mxCell>
                <mxCell id="14" value="Chofer" style="swimlane;fontStyle=1;align=center;verticalAlign=top;childLayout=stackLayout;horizontal=1;startSize=26;horizontalStack=0;resizeParent=1;resizeParentMax=0;resizeLast=0;collapsible=1;marginBottom=0;whiteSpace=wrap;html=1;fillColor=#FFB366;" parent="1" vertex="1">
                    <mxGeometry x="404" y="-230" width="240" height="240" as="geometry">
                        <mxRectangle x="404" y="-230" width="80" height="30" as="alternateBounds"/>
                    </mxGeometry>
                </mxCell>
                <mxCell id="15" value="- Categoria categoria&lt;div&gt;- Domicilio domicilio&lt;/div&gt;&lt;div&gt;- String nombre&lt;/div&gt;&lt;div&gt;- Vehiculo vehiculo&lt;/div&gt;" style="text;strokeColor=none;fillColor=none;align=left;verticalAlign=top;spacingLeft=4;spacingRight=4;overflow=hidden;rotatable=0;points=[[0,0.5],[1,0.5]];portConstraint=eastwest;whiteSpace=wrap;html=1;" parent="14" vertex="1">
                    <mxGeometry y="26" width="240" height="64" as="geometry"/>
                </mxCell>
                <mxCell id="16" value="" style="line;strokeWidth=1;fillColor=none;align=left;verticalAlign=middle;spacingTop=-1;spacingLeft=3;spacingRight=3;rotatable=0;labelPosition=right;points=[];portConstraint=eastwest;strokeColor=inherit;" parent="14" vertex="1">
                    <mxGeometry y="90" width="240" height="8" as="geometry"/>
                </mxCell>
                <mxCell id="17" value="+ Chofer(String nombre)&lt;div&gt;+ String getNombre()&lt;/div&gt;&lt;div&gt;+ void setDomicilio(Domicilio domicilio)&lt;/div&gt;&lt;div&gt;+ Domicilio getDomicilio()&lt;/div&gt;&lt;div&gt;+ void setCategoria(Categoria categoria)&lt;/div&gt;&lt;div&gt;+ Categoria getCategoria()&lt;/div&gt;&lt;div&gt;+ void setVehiculo(Vehiculo vehiculo)&lt;/div&gt;&lt;div&gt;+ Colectivo getVehiculo()&lt;/div&gt;&lt;div&gt;+ String toString()&lt;/div&gt;" style="text;strokeColor=none;fillColor=none;align=left;verticalAlign=top;spacingLeft=4;spacingRight=4;overflow=hidden;rotatable=0;points=[[0,0.5],[1,0.5]];portConstraint=eastwest;whiteSpace=wrap;html=1;" parent="14" vertex="1">
                    <mxGeometry y="98" width="240" height="142" as="geometry"/>
                </mxCell>
                <mxCell id="18" value="Empresa" style="swimlane;fontStyle=1;align=center;verticalAlign=top;childLayout=stackLayout;horizontal=1;startSize=26;horizontalStack=0;resizeParent=1;resizeParentMax=0;resizeLast=0;collapsible=1;marginBottom=0;whiteSpace=wrap;html=1;fillColor=#FF66FF;" parent="1" vertex="1">
                    <mxGeometry x="399" y="125" width="440" height="460" as="geometry">
                        <mxRectangle x="130" y="555" width="90" height="30" as="alternateBounds"/>
                    </mxGeometry>
                </mxCell>
                <mxCell id="19" value="- static Empresa _instancia&lt;div&gt;- HasMap&amp;lt;int,Vehiculo&amp;gt; vehiculos&lt;/div&gt;&lt;div&gt;- HashMap&amp;lt;String Categoria&amp;gt; categorias&lt;/div&gt;&lt;div&gt;- HashMap&amp;lt;String, Chofer&amp;gt; personal&lt;/div&gt;&lt;div&gt;- static int siguienteNumero = 0&lt;/div&gt;&lt;div&gt;- VehiculoFactory creadorDeVehiculos&lt;/div&gt;&lt;div&gt;- CategoriaFactory creadorDeCategorias&lt;/div&gt;&lt;div&gt;- ChoferFactory creadorDeChoferes&lt;/div&gt;" style="text;strokeColor=none;fillColor=none;align=left;verticalAlign=top;spacingLeft=4;spacingRight=4;overflow=hidden;rotatable=0;points=[[0,0.5],[1,0.5]];portConstraint=eastwest;whiteSpace=wrap;html=1;" parent="18" vertex="1">
                    <mxGeometry y="26" width="440" height="124" as="geometry"/>
                </mxCell>
                <mxCell id="20" value="" style="line;strokeWidth=1;fillColor=none;align=left;verticalAlign=middle;spacingTop=-1;spacingLeft=3;spacingRight=3;rotatable=0;labelPosition=right;points=[];portConstraint=eastwest;strokeColor=inherit;" parent="18" vertex="1">
                    <mxGeometry y="150" width="440" height="8" as="geometry"/>
                </mxCell>
                <mxCell id="21" value="- Empresa()&lt;div&gt;&lt;font color=&quot;#000000&quot;&gt;+ static Empresa getInstancia()&lt;br&gt;&lt;/font&gt;&lt;div&gt;+ void agregarVehiculo(String modelo)&lt;/div&gt;&lt;div&gt;&lt;span style=&quot;color: rgb(63, 63, 63);&quot;&gt;+ void agregarVehiculo(String modelo, boolean cochecama&lt;/span&gt;&lt;span style=&quot;background-color: transparent;&quot;&gt;)&lt;/span&gt;&lt;/div&gt;&lt;div&gt;&lt;span style=&quot;color: rgb(63, 63, 63);&quot;&gt;&lt;span style=&quot;color: rgb(63, 63, 63);&quot;&gt;+ void agregarVehiculo(String modelo,&amp;nbsp;&lt;span style=&quot;color: rgb(0, 0, 0);&quot;&gt;int tara, int cargaMaxima&lt;/span&gt;&lt;/span&gt;&lt;/span&gt;&lt;span style=&quot;background-color: transparent;&quot;&gt;)&lt;/span&gt;&lt;/div&gt;&lt;div&gt;+ void eliminarVehiculo(int numerointerno)&lt;/div&gt;&lt;div&gt;+ ArrayList&amp;lt;Vehiculo&amp;gt; getVehiculos()&lt;/div&gt;&lt;div&gt;+ void agregarCategoria(&lt;span style=&quot;color: rgb(0, 0, 0);&quot;&gt;String nombrecategoria, double sueldo, boolean habilitaColectivoLinea, boolean habilitaColectivoLarga, boolean habilitaCamion&lt;/span&gt;)&lt;/div&gt;&lt;div&gt;+ void eliminarCategoria(String nombrecategoria)&lt;/div&gt;&lt;div&gt;+ ArrayList&amp;lt;Categoria&amp;gt; getCategorias()&lt;/div&gt;&lt;div&gt;+ void agregarChofer(Chofer chofer)&lt;/div&gt;&lt;div&gt;+ void despedirChofer(Chofer chofer)&lt;/div&gt;&lt;div&gt;+ ArrayList&amp;lt;Chofer&amp;gt; getPersonal()&lt;/div&gt;&lt;div&gt;+ int getChoferesSinColectivo()&lt;/div&gt;&lt;div&gt;+ int getCantidadColectivos()&lt;/div&gt;&lt;div&gt;+ ArrayList&amp;lt;Chofer&amp;gt; getChoferesCategoria(Categoria categoria)&lt;/div&gt;&lt;div&gt;+ ArrayList&amp;lt;Categoria&amp;gt; getCategoriasSueldo(double minSueldo)&lt;/div&gt;&lt;div&gt;+ ArrayList&amp;lt;Chofer&amp;gt; getChoferesSueldo(double minSueldo)&lt;/div&gt;&lt;/div&gt;" style="text;strokeColor=none;fillColor=none;align=left;verticalAlign=top;spacingLeft=4;spacingRight=4;overflow=hidden;rotatable=0;points=[[0,0.5],[1,0.5]];portConstraint=eastwest;whiteSpace=wrap;html=1;" parent="18" vertex="1">
                    <mxGeometry y="158" width="440" height="302" as="geometry"/>
                </mxCell>
                <mxCell id="22" value="" style="endArrow=open;html=1;endSize=12;startArrow=diamondThin;startSize=14;startFill=0;edgeStyle=orthogonalEdgeStyle;align=left;verticalAlign=bottom;entryX=0.5;entryY=1;entryDx=0;entryDy=0;exitX=0.5;exitY=0;exitDx=0;exitDy=0;" parent="1" source="14" target="6" edge="1">
                    <mxGeometry x="-1" y="3" relative="1" as="geometry">
                        <mxPoint x="359" y="-260" as="sourcePoint"/>
                        <mxPoint x="399" y="-190" as="targetPoint"/>
                    </mxGeometry>
                </mxCell>
                <mxCell id="23" value="" style="endArrow=open;html=1;endSize=12;startArrow=diamondThin;startSize=14;startFill=0;edgeStyle=orthogonalEdgeStyle;align=left;verticalAlign=bottom;entryX=1;entryY=0.5;entryDx=0;entryDy=0;exitX=0;exitY=0.5;exitDx=0;exitDy=0;" parent="1" source="14" target="2" edge="1">
                    <mxGeometry x="-1" y="3" relative="1" as="geometry">
                        <mxPoint x="79" y="-190" as="sourcePoint"/>
                        <mxPoint x="239" y="-190" as="targetPoint"/>
                    </mxGeometry>
                </mxCell>
                <mxCell id="24" value="" style="endArrow=open;html=1;endSize=12;startArrow=diamondThin;startSize=14;startFill=1;edgeStyle=orthogonalEdgeStyle;align=left;verticalAlign=bottom;entryX=0.5;entryY=1;entryDx=0;entryDy=0;exitX=1;exitY=0.5;exitDx=0;exitDy=0;" parent="1" source="14" target="10" edge="1">
                    <mxGeometry x="-1" y="3" relative="1" as="geometry">
                        <mxPoint x="339" y="-190" as="sourcePoint"/>
                        <mxPoint x="499" y="-190" as="targetPoint"/>
                    </mxGeometry>
                </mxCell>
                <mxCell id="25" value="" style="endArrow=open;html=1;endSize=12;startArrow=diamondThin;startSize=14;startFill=1;edgeStyle=orthogonalEdgeStyle;align=left;verticalAlign=bottom;exitX=0.5;exitY=0;exitDx=0;exitDy=0;entryX=0.5;entryY=1;entryDx=0;entryDy=0;" parent="1" source="18" target="14" edge="1">
                    <mxGeometry x="-1" y="3" relative="1" as="geometry">
                        <mxPoint x="219" y="-230" as="sourcePoint"/>
                        <mxPoint x="379" y="-230" as="targetPoint"/>
                    </mxGeometry>
                </mxCell>
                <mxCell id="26" value="ColectivoDeLinea" style="swimlane;fontStyle=1;align=center;verticalAlign=top;childLayout=stackLayout;horizontal=1;startSize=26;horizontalStack=0;resizeParent=1;resizeParentMax=0;resizeLast=0;collapsible=1;marginBottom=0;whiteSpace=wrap;html=1;" parent="1" vertex="1">
                    <mxGeometry x="-811" y="210" width="290" height="86" as="geometry"/>
                </mxCell>
                <mxCell id="28" value="" style="line;strokeWidth=1;fillColor=none;align=left;verticalAlign=middle;spacingTop=-1;spacingLeft=3;spacingRight=3;rotatable=0;labelPosition=right;points=[];portConstraint=eastwest;strokeColor=inherit;" parent="26" vertex="1">
                    <mxGeometry y="26" width="290" height="8" as="geometry"/>
                </mxCell>
                <mxCell id="31" value="+ ColectivoDeLinea(String modelo)" style="text;strokeColor=none;fillColor=none;align=left;verticalAlign=top;spacingLeft=4;spacingRight=4;overflow=hidden;rotatable=0;points=[[0,0.5],[1,0.5]];portConstraint=eastwest;whiteSpace=wrap;html=1;" parent="26" vertex="1">
                    <mxGeometry y="34" width="290" height="26" as="geometry"/>
                </mxCell>
                <mxCell id="29" value="+ boolean aceptoChofer(Chofer chofer)" style="text;strokeColor=none;fillColor=none;align=left;verticalAlign=top;spacingLeft=4;spacingRight=4;overflow=hidden;rotatable=0;points=[[0,0.5],[1,0.5]];portConstraint=eastwest;whiteSpace=wrap;html=1;" parent="26" vertex="1">
                    <mxGeometry y="60" width="290" height="26" as="geometry"/>
                </mxCell>
                <mxCell id="30" value="Extends" style="endArrow=block;endSize=16;endFill=0;html=1;exitX=0.5;exitY=0;exitDx=0;exitDy=0;entryX=0.416;entryY=1.091;entryDx=0;entryDy=0;entryPerimeter=0;" parent="1" source="26" target="122" edge="1">
                    <mxGeometry width="160" relative="1" as="geometry">
                        <mxPoint x="-281" y="-110" as="sourcePoint"/>
                        <mxPoint x="-620" y="50" as="targetPoint"/>
                    </mxGeometry>
                </mxCell>
                <mxCell id="34" value="ColectivoDeLargaDistancia" style="swimlane;fontStyle=1;align=center;verticalAlign=top;childLayout=stackLayout;horizontal=1;startSize=26;horizontalStack=0;resizeParent=1;resizeParentMax=0;resizeLast=0;collapsible=1;marginBottom=0;whiteSpace=wrap;html=1;" parent="1" vertex="1">
                    <mxGeometry x="-461" y="210" width="370" height="138" as="geometry"/>
                </mxCell>
                <mxCell id="35" value="- boolean cocheCama" style="text;strokeColor=none;fillColor=none;align=left;verticalAlign=top;spacingLeft=4;spacingRight=4;overflow=hidden;rotatable=0;points=[[0,0.5],[1,0.5]];portConstraint=eastwest;whiteSpace=wrap;html=1;" parent="34" vertex="1">
                    <mxGeometry y="26" width="370" height="26" as="geometry"/>
                </mxCell>
                <mxCell id="36" value="" style="line;strokeWidth=1;fillColor=none;align=left;verticalAlign=middle;spacingTop=-1;spacingLeft=3;spacingRight=3;rotatable=0;labelPosition=right;points=[];portConstraint=eastwest;strokeColor=inherit;" parent="34" vertex="1">
                    <mxGeometry y="52" width="370" height="8" as="geometry"/>
                </mxCell>
                <mxCell id="37" value="+ ColectivoDeLargaDistancia(String modelo, boolean cocheCama)" style="text;strokeColor=none;fillColor=none;align=left;verticalAlign=top;spacingLeft=4;spacingRight=4;overflow=hidden;rotatable=0;points=[[0,0.5],[1,0.5]];portConstraint=eastwest;whiteSpace=wrap;html=1;" parent="34" vertex="1">
                    <mxGeometry y="60" width="370" height="26" as="geometry"/>
                </mxCell>
                <mxCell id="44" value="&lt;span style=&quot;color: rgb(0, 0, 0);&quot;&gt;+ boolean getCocheCama()&lt;/span&gt;" style="text;strokeColor=none;fillColor=none;align=left;verticalAlign=top;spacingLeft=4;spacingRight=4;overflow=hidden;rotatable=0;points=[[0,0.5],[1,0.5]];portConstraint=eastwest;whiteSpace=wrap;html=1;" parent="34" vertex="1">
                    <mxGeometry y="86" width="370" height="26" as="geometry"/>
                </mxCell>
                <mxCell id="40" value="+ boolean aceptoChofer(Chofer chofer)" style="text;strokeColor=none;fillColor=none;align=left;verticalAlign=top;spacingLeft=4;spacingRight=4;overflow=hidden;rotatable=0;points=[[0,0.5],[1,0.5]];portConstraint=eastwest;whiteSpace=wrap;html=1;" parent="34" vertex="1">
                    <mxGeometry y="112" width="370" height="26" as="geometry"/>
                </mxCell>
                <mxCell id="41" value="Extends" style="endArrow=block;endSize=16;endFill=0;html=1;exitX=0.5;exitY=0;exitDx=0;exitDy=0;entryX=0.569;entryY=1.048;entryDx=0;entryDy=0;entryPerimeter=0;" parent="1" source="34" target="122" edge="1">
                    <mxGeometry width="160" relative="1" as="geometry">
                        <mxPoint x="-351" y="-90" as="sourcePoint"/>
                        <mxPoint x="-370" y="50" as="targetPoint"/>
                    </mxGeometry>
                </mxCell>
                <mxCell id="45" value="Camion" style="swimlane;fontStyle=1;align=center;verticalAlign=top;childLayout=stackLayout;horizontal=1;startSize=26;horizontalStack=0;resizeParent=1;resizeParentMax=0;resizeLast=0;collapsible=1;marginBottom=0;whiteSpace=wrap;html=1;" parent="1" vertex="1">
                    <mxGeometry x="-1" y="-39" width="290" height="268" as="geometry"/>
                </mxCell>
                <mxCell id="46" value="- int tara" style="text;strokeColor=none;fillColor=none;align=left;verticalAlign=top;spacingLeft=4;spacingRight=4;overflow=hidden;rotatable=0;points=[[0,0.5],[1,0.5]];portConstraint=eastwest;whiteSpace=wrap;html=1;" parent="45" vertex="1">
                    <mxGeometry y="26" width="290" height="26" as="geometry"/>
                </mxCell>
                <mxCell id="49" value="- int cargaMaxima" style="text;strokeColor=none;fillColor=none;align=left;verticalAlign=top;spacingLeft=4;spacingRight=4;overflow=hidden;rotatable=0;points=[[0,0.5],[1,0.5]];portConstraint=eastwest;whiteSpace=wrap;html=1;" parent="45" vertex="1">
                    <mxGeometry y="52" width="290" height="26" as="geometry"/>
                </mxCell>
                <mxCell id="51" value="- Acoplado acoplado" style="text;strokeColor=none;fillColor=none;align=left;verticalAlign=top;spacingLeft=4;spacingRight=4;overflow=hidden;rotatable=0;points=[[0,0.5],[1,0.5]];portConstraint=eastwest;whiteSpace=wrap;html=1;" parent="45" vertex="1">
                    <mxGeometry y="78" width="290" height="26" as="geometry"/>
                </mxCell>
                <mxCell id="47" value="" style="line;strokeWidth=1;fillColor=none;align=left;verticalAlign=middle;spacingTop=-1;spacingLeft=3;spacingRight=3;rotatable=0;labelPosition=right;points=[];portConstraint=eastwest;strokeColor=inherit;" parent="45" vertex="1">
                    <mxGeometry y="104" width="290" height="8" as="geometry"/>
                </mxCell>
                <mxCell id="48" value="+ Camion(String modelo, int tara, int cargaMaxima)" style="text;strokeColor=none;fillColor=none;align=left;verticalAlign=top;spacingLeft=4;spacingRight=4;overflow=hidden;rotatable=0;points=[[0,0.5],[1,0.5]];portConstraint=eastwest;whiteSpace=wrap;html=1;" parent="45" vertex="1">
                    <mxGeometry y="112" width="290" height="26" as="geometry"/>
                </mxCell>
                <mxCell id="58" value="+ void setAcoplado(Acoplado acoplado)" style="text;strokeColor=none;fillColor=none;align=left;verticalAlign=top;spacingLeft=4;spacingRight=4;overflow=hidden;rotatable=0;points=[[0,0.5],[1,0.5]];portConstraint=eastwest;whiteSpace=wrap;html=1;" parent="45" vertex="1">
                    <mxGeometry y="138" width="290" height="26" as="geometry"/>
                </mxCell>
                <mxCell id="60" value="+ Acoplado getAcoplado()" style="text;strokeColor=none;fillColor=none;align=left;verticalAlign=top;spacingLeft=4;spacingRight=4;overflow=hidden;rotatable=0;points=[[0,0.5],[1,0.5]];portConstraint=eastwest;whiteSpace=wrap;html=1;" parent="45" vertex="1">
                    <mxGeometry y="164" width="290" height="26" as="geometry"/>
                </mxCell>
                <mxCell id="61" value="+ int getTara()" style="text;strokeColor=none;fillColor=none;align=left;verticalAlign=top;spacingLeft=4;spacingRight=4;overflow=hidden;rotatable=0;points=[[0,0.5],[1,0.5]];portConstraint=eastwest;whiteSpace=wrap;html=1;" parent="45" vertex="1">
                    <mxGeometry y="190" width="290" height="26" as="geometry"/>
                </mxCell>
                <mxCell id="64" value="+ int getCargaMaxima()" style="text;strokeColor=none;fillColor=none;align=left;verticalAlign=top;spacingLeft=4;spacingRight=4;overflow=hidden;rotatable=0;points=[[0,0.5],[1,0.5]];portConstraint=eastwest;whiteSpace=wrap;html=1;" parent="45" vertex="1">
                    <mxGeometry y="216" width="290" height="26" as="geometry"/>
                </mxCell>
                <mxCell id="63" value="&lt;span style=&quot;color: rgb(0, 0, 0);&quot;&gt;+ boolean aceptoChofer(Chofer chofer)&lt;/span&gt;" style="text;strokeColor=none;fillColor=none;align=left;verticalAlign=top;spacingLeft=4;spacingRight=4;overflow=hidden;rotatable=0;points=[[0,0.5],[1,0.5]];portConstraint=eastwest;whiteSpace=wrap;html=1;" parent="45" vertex="1">
                    <mxGeometry y="242" width="290" height="26" as="geometry"/>
                </mxCell>
                <mxCell id="52" value="Extends" style="endArrow=block;endSize=16;endFill=0;html=1;exitX=0.5;exitY=0;exitDx=0;exitDy=0;entryX=0.526;entryY=1.064;entryDx=0;entryDy=0;entryPerimeter=0;" parent="1" source="45" target="5" edge="1">
                    <mxGeometry width="160" relative="1" as="geometry">
                        <mxPoint x="9" y="-160" as="sourcePoint"/>
                        <mxPoint x="169" y="-160" as="targetPoint"/>
                    </mxGeometry>
                </mxCell>
                <mxCell id="53" value="Acoplado" style="swimlane;fontStyle=1;align=center;verticalAlign=top;childLayout=stackLayout;horizontal=1;startSize=26;horizontalStack=0;resizeParent=1;resizeParentMax=0;resizeLast=0;collapsible=1;marginBottom=0;whiteSpace=wrap;html=1;" parent="1" vertex="1">
                    <mxGeometry x="-31" y="356" width="320" height="326" as="geometry"/>
                </mxCell>
                <mxCell id="54" value="- int tara&lt;div&gt;- int cargaMaxima&lt;br&gt;- boolean refrigerado&lt;br&gt;- int numeroAcoplado&lt;br&gt;- boolean enUso&lt;br&gt;&lt;/div&gt;" style="text;strokeColor=none;fillColor=none;align=left;verticalAlign=top;spacingLeft=4;spacingRight=4;overflow=hidden;rotatable=0;points=[[0,0.5],[1,0.5]];portConstraint=eastwest;whiteSpace=wrap;html=1;" parent="53" vertex="1">
                    <mxGeometry y="26" width="320" height="84" as="geometry"/>
                </mxCell>
                <mxCell id="55" value="" style="line;strokeWidth=1;fillColor=none;align=left;verticalAlign=middle;spacingTop=-1;spacingLeft=3;spacingRight=3;rotatable=0;labelPosition=right;points=[];portConstraint=eastwest;strokeColor=inherit;" parent="53" vertex="1">
                    <mxGeometry y="110" width="320" height="8" as="geometry"/>
                </mxCell>
                <mxCell id="65" value="+ Acoplado(int tara, int cargaMaxima, boolean refrigerado)" style="text;strokeColor=none;fillColor=none;align=left;verticalAlign=top;spacingLeft=4;spacingRight=4;overflow=hidden;rotatable=0;points=[[0,0.5],[1,0.5]];portConstraint=eastwest;whiteSpace=wrap;html=1;" parent="53" vertex="1">
                    <mxGeometry y="118" width="320" height="26" as="geometry"/>
                </mxCell>
                <mxCell id="66" value="+ int getTara()" style="text;strokeColor=none;fillColor=none;align=left;verticalAlign=top;spacingLeft=4;spacingRight=4;overflow=hidden;rotatable=0;points=[[0,0.5],[1,0.5]];portConstraint=eastwest;whiteSpace=wrap;html=1;" parent="53" vertex="1">
                    <mxGeometry y="144" width="320" height="26" as="geometry"/>
                </mxCell>
                <mxCell id="67" value="+ int getCargaMaxima()" style="text;strokeColor=none;fillColor=none;align=left;verticalAlign=top;spacingLeft=4;spacingRight=4;overflow=hidden;rotatable=0;points=[[0,0.5],[1,0.5]];portConstraint=eastwest;whiteSpace=wrap;html=1;" parent="53" vertex="1">
                    <mxGeometry y="170" width="320" height="26" as="geometry"/>
                </mxCell>
                <mxCell id="68" value="+ boolean getRefrigerado()" style="text;strokeColor=none;fillColor=none;align=left;verticalAlign=top;spacingLeft=4;spacingRight=4;overflow=hidden;rotatable=0;points=[[0,0.5],[1,0.5]];portConstraint=eastwest;whiteSpace=wrap;html=1;" parent="53" vertex="1">
                    <mxGeometry y="196" width="320" height="26" as="geometry"/>
                </mxCell>
                <mxCell id="69" value="+ void setNumeroAcoplado(int numeroAcoplado)" style="text;strokeColor=none;fillColor=none;align=left;verticalAlign=top;spacingLeft=4;spacingRight=4;overflow=hidden;rotatable=0;points=[[0,0.5],[1,0.5]];portConstraint=eastwest;whiteSpace=wrap;html=1;" parent="53" vertex="1">
                    <mxGeometry y="222" width="320" height="26" as="geometry"/>
                </mxCell>
                <mxCell id="70" value="+ int getNumeroAcoplado()" style="text;strokeColor=none;fillColor=none;align=left;verticalAlign=top;spacingLeft=4;spacingRight=4;overflow=hidden;rotatable=0;points=[[0,0.5],[1,0.5]];portConstraint=eastwest;whiteSpace=wrap;html=1;" parent="53" vertex="1">
                    <mxGeometry y="248" width="320" height="26" as="geometry"/>
                </mxCell>
                <mxCell id="71" value="+ void setEnUso(boolean enUso)" style="text;strokeColor=none;fillColor=none;align=left;verticalAlign=top;spacingLeft=4;spacingRight=4;overflow=hidden;rotatable=0;points=[[0,0.5],[1,0.5]];portConstraint=eastwest;whiteSpace=wrap;html=1;" parent="53" vertex="1">
                    <mxGeometry y="274" width="320" height="26" as="geometry"/>
                </mxCell>
                <mxCell id="56" value="+ boolean getEnUso()" style="text;strokeColor=none;fillColor=none;align=left;verticalAlign=top;spacingLeft=4;spacingRight=4;overflow=hidden;rotatable=0;points=[[0,0.5],[1,0.5]];portConstraint=eastwest;whiteSpace=wrap;html=1;" parent="53" vertex="1">
                    <mxGeometry y="300" width="320" height="26" as="geometry"/>
                </mxCell>
                <mxCell id="57" value="" style="endArrow=open;html=1;endSize=12;startArrow=diamondThin;startSize=14;startFill=1;edgeStyle=orthogonalEdgeStyle;align=left;verticalAlign=bottom;entryX=0.5;entryY=0;entryDx=0;entryDy=0;exitX=0.45;exitY=1.013;exitDx=0;exitDy=0;exitPerimeter=0;" parent="1" source="63" target="53" edge="1">
                    <mxGeometry x="-1" y="3" relative="1" as="geometry">
                        <mxPoint x="119" y="280" as="sourcePoint"/>
                        <mxPoint x="179" y="140" as="targetPoint"/>
                    </mxGeometry>
                </mxCell>
                <mxCell id="72" value="VehiculoFactory" style="swimlane;fontStyle=1;align=center;verticalAlign=top;childLayout=stackLayout;horizontal=1;startSize=26;horizontalStack=0;resizeParent=1;resizeParentMax=0;resizeLast=0;collapsible=1;marginBottom=0;whiteSpace=wrap;html=1;" parent="1" vertex="1">
                    <mxGeometry x="949" y="-160" width="850" height="242" as="geometry"/>
                </mxCell>
                <mxCell id="73" value="- static VehiculoFactory _instancia" style="text;strokeColor=none;fillColor=none;align=left;verticalAlign=top;spacingLeft=4;spacingRight=4;overflow=hidden;rotatable=0;points=[[0,0.5],[1,0.5]];portConstraint=eastwest;whiteSpace=wrap;html=1;" parent="72" vertex="1">
                    <mxGeometry y="26" width="850" height="26" as="geometry"/>
                </mxCell>
                <mxCell id="105" value="- AcopladoFactory generadorDeAcoplados" style="text;strokeColor=none;fillColor=none;align=left;verticalAlign=top;spacingLeft=4;spacingRight=4;overflow=hidden;rotatable=0;points=[[0,0.5],[1,0.5]];portConstraint=eastwest;whiteSpace=wrap;html=1;" parent="72" vertex="1">
                    <mxGeometry y="52" width="850" height="26" as="geometry"/>
                </mxCell>
                <mxCell id="74" value="" style="line;strokeWidth=1;fillColor=none;align=left;verticalAlign=middle;spacingTop=-1;spacingLeft=3;spacingRight=3;rotatable=0;labelPosition=right;points=[];portConstraint=eastwest;strokeColor=inherit;" parent="72" vertex="1">
                    <mxGeometry y="78" width="850" height="8" as="geometry"/>
                </mxCell>
                <mxCell id="75" value="- VehiculoFactory()" style="text;strokeColor=none;fillColor=none;align=left;verticalAlign=top;spacingLeft=4;spacingRight=4;overflow=hidden;rotatable=0;points=[[0,0.5],[1,0.5]];portConstraint=eastwest;whiteSpace=wrap;html=1;" parent="72" vertex="1">
                    <mxGeometry y="86" width="850" height="26" as="geometry"/>
                </mxCell>
                <mxCell id="76" value="+ static VehiculoFactory getInstancia()" style="text;strokeColor=none;fillColor=none;align=left;verticalAlign=top;spacingLeft=4;spacingRight=4;overflow=hidden;rotatable=0;points=[[0,0.5],[1,0.5]];portConstraint=eastwest;whiteSpace=wrap;html=1;" parent="72" vertex="1">
                    <mxGeometry y="112" width="850" height="26" as="geometry"/>
                </mxCell>
                <mxCell id="77" value="+ ColectivoDeLinea crearVehiculo(String modelo, int nroInterno)" style="text;strokeColor=none;fillColor=none;align=left;verticalAlign=top;spacingLeft=4;spacingRight=4;overflow=hidden;rotatable=0;points=[[0,0.5],[1,0.5]];portConstraint=eastwest;whiteSpace=wrap;html=1;" parent="72" vertex="1">
                    <mxGeometry y="138" width="850" height="26" as="geometry"/>
                </mxCell>
                <mxCell id="78" value="+ ColectivoDeLargaDistancia crearVehiculo(&lt;span style=&quot;color: rgb(63, 63, 63);&quot;&gt;String modelo, boolean cochecama&lt;/span&gt;&lt;span style=&quot;background-color: transparent; color: rgb(63, 63, 63);&quot;&gt;, int nroInterno&lt;/span&gt;&lt;span style=&quot;color: rgb(63, 63, 63); background-color: transparent;&quot;&gt;)&lt;/span&gt;" style="text;strokeColor=none;fillColor=none;align=left;verticalAlign=top;spacingLeft=4;spacingRight=4;overflow=hidden;rotatable=0;points=[[0,0.5],[1,0.5]];portConstraint=eastwest;whiteSpace=wrap;html=1;" parent="72" vertex="1">
                    <mxGeometry y="164" width="850" height="26" as="geometry"/>
                </mxCell>
                <mxCell id="79" value="+ Camion crearVehiculo(&lt;span style=&quot;color: rgb(63, 63, 63);&quot;&gt;String modelo,&lt;/span&gt;&lt;span style=&quot;color: rgb(63, 63, 63); background-color: transparent;&quot;&gt;&lt;span style=&quot;color: rgb(63, 63, 63);&quot;&gt;&lt;span style=&quot;color: rgb(63, 63, 63);&quot;&gt;&amp;nbsp;&lt;span style=&quot;color: rgb(0, 0, 0);&quot;&gt;int tara, int cargaMaxima&lt;/span&gt;&lt;/span&gt;&lt;/span&gt;&lt;span style=&quot;background-color: transparent; color: rgb(63, 63, 63);&quot;&gt;, int nroInterno&lt;/span&gt;)&lt;/span&gt;" style="text;strokeColor=none;fillColor=none;align=left;verticalAlign=top;spacingLeft=4;spacingRight=4;overflow=hidden;rotatable=0;points=[[0,0.5],[1,0.5]];portConstraint=eastwest;whiteSpace=wrap;html=1;" parent="72" vertex="1">
                    <mxGeometry y="190" width="850" height="26" as="geometry"/>
                </mxCell>
                <mxCell id="106" value="+ Camion crearVehiculo(&lt;span style=&quot;color: rgb(63, 63, 63);&quot;&gt;String modelo,&lt;/span&gt;&lt;span style=&quot;color: rgb(63, 63, 63); background-color: transparent;&quot;&gt;&lt;span style=&quot;color: rgb(63, 63, 63);&quot;&gt;&lt;span style=&quot;color: rgb(63, 63, 63);&quot;&gt;&amp;nbsp;&lt;span style=&quot;color: rgb(0, 0, 0);&quot;&gt;int tara, int cargaMaxima&lt;/span&gt;&lt;/span&gt;&lt;/span&gt;&lt;span style=&quot;background-color: transparent; color: rgb(63, 63, 63);&quot;&gt;,&amp;nbsp;&lt;span style=&quot;color: rgb(0, 0, 0);&quot;&gt;int taraAcoplado, int cargaMaximaAcoplado, boolean acopladoRefrigerado&lt;/span&gt;, int nroInterno&lt;/span&gt;)&lt;/span&gt;" style="text;strokeColor=none;fillColor=none;align=left;verticalAlign=top;spacingLeft=4;spacingRight=4;overflow=hidden;rotatable=0;points=[[0,0.5],[1,0.5]];portConstraint=eastwest;whiteSpace=wrap;html=1;" parent="72" vertex="1">
                    <mxGeometry y="216" width="850" height="26" as="geometry"/>
                </mxCell>
                <mxCell id="80" value="" style="endArrow=open;html=1;endSize=12;startArrow=diamondThin;startSize=14;startFill=1;edgeStyle=orthogonalEdgeStyle;align=left;verticalAlign=bottom;entryX=0;entryY=0.5;entryDx=0;entryDy=0;exitX=0.75;exitY=0;exitDx=0;exitDy=0;" parent="1" source="18" target="76" edge="1">
                    <mxGeometry x="-1" y="3" relative="1" as="geometry">
                        <mxPoint x="759" y="40" as="sourcePoint"/>
                        <mxPoint x="929" y="-30" as="targetPoint"/>
                    </mxGeometry>
                </mxCell>
                <mxCell id="81" value="CategoriaFactory" style="swimlane;fontStyle=1;align=center;verticalAlign=top;childLayout=stackLayout;horizontal=1;startSize=26;horizontalStack=0;resizeParent=1;resizeParentMax=0;resizeLast=0;collapsible=1;marginBottom=0;whiteSpace=wrap;html=1;" parent="1" vertex="1">
                    <mxGeometry x="1109" y="130" width="530" height="150" as="geometry"/>
                </mxCell>
                <mxCell id="82" value="- static CategoriaFactory _instancia" style="text;strokeColor=none;fillColor=none;align=left;verticalAlign=top;spacingLeft=4;spacingRight=4;overflow=hidden;rotatable=0;points=[[0,0.5],[1,0.5]];portConstraint=eastwest;whiteSpace=wrap;html=1;" parent="81" vertex="1">
                    <mxGeometry y="26" width="530" height="26" as="geometry"/>
                </mxCell>
                <mxCell id="83" value="" style="line;strokeWidth=1;fillColor=none;align=left;verticalAlign=middle;spacingTop=-1;spacingLeft=3;spacingRight=3;rotatable=0;labelPosition=right;points=[];portConstraint=eastwest;strokeColor=inherit;" parent="81" vertex="1">
                    <mxGeometry y="52" width="530" height="8" as="geometry"/>
                </mxCell>
                <mxCell id="84" value="- CategoriaFactory()" style="text;strokeColor=none;fillColor=none;align=left;verticalAlign=top;spacingLeft=4;spacingRight=4;overflow=hidden;rotatable=0;points=[[0,0.5],[1,0.5]];portConstraint=eastwest;whiteSpace=wrap;html=1;" parent="81" vertex="1">
                    <mxGeometry y="60" width="530" height="26" as="geometry"/>
                </mxCell>
                <mxCell id="85" value="+ static CategoriaFactory getInstancia()" style="text;strokeColor=none;fillColor=none;align=left;verticalAlign=top;spacingLeft=4;spacingRight=4;overflow=hidden;rotatable=0;points=[[0,0.5],[1,0.5]];portConstraint=eastwest;whiteSpace=wrap;html=1;" parent="81" vertex="1">
                    <mxGeometry y="86" width="530" height="26" as="geometry"/>
                </mxCell>
                <mxCell id="86" value="+ Categoria crearCategoria(&lt;span style=&quot;color: rgb(0, 0, 0);&quot;&gt;String nombrecategoria, double sueldo, boolean habilitaColectivoLinea, boolean habilitaColectivoLarga, boolean habilitaCamion)&lt;/span&gt;" style="text;strokeColor=none;fillColor=none;align=left;verticalAlign=top;spacingLeft=4;spacingRight=4;overflow=hidden;rotatable=0;points=[[0,0.5],[1,0.5]];portConstraint=eastwest;whiteSpace=wrap;html=1;" parent="81" vertex="1">
                    <mxGeometry y="112" width="530" height="38" as="geometry"/>
                </mxCell>
                <mxCell id="87" value="" style="endArrow=open;html=1;endSize=12;startArrow=diamondThin;startSize=14;startFill=1;edgeStyle=orthogonalEdgeStyle;align=left;verticalAlign=bottom;exitX=1;exitY=0.5;exitDx=0;exitDy=0;entryX=0;entryY=0.5;entryDx=0;entryDy=0;" parent="1" source="19" target="85" edge="1">
                    <mxGeometry x="-1" y="3" relative="1" as="geometry">
                        <mxPoint x="940" y="270" as="sourcePoint"/>
                        <mxPoint x="1100" y="270" as="targetPoint"/>
                    </mxGeometry>
                </mxCell>
                <mxCell id="88" value="ChoferFactory" style="swimlane;fontStyle=1;align=center;verticalAlign=top;childLayout=stackLayout;horizontal=1;startSize=26;horizontalStack=0;resizeParent=1;resizeParentMax=0;resizeLast=0;collapsible=1;marginBottom=0;whiteSpace=wrap;html=1;" parent="1" vertex="1">
                    <mxGeometry x="1109" y="330" width="440" height="190" as="geometry"/>
                </mxCell>
                <mxCell id="89" value="- static ChoferFactory _instancia" style="text;strokeColor=none;fillColor=none;align=left;verticalAlign=top;spacingLeft=4;spacingRight=4;overflow=hidden;rotatable=0;points=[[0,0.5],[1,0.5]];portConstraint=eastwest;whiteSpace=wrap;html=1;" parent="88" vertex="1">
                    <mxGeometry y="26" width="440" height="26" as="geometry"/>
                </mxCell>
                <mxCell id="92" value="- DomicilioFactory generadorDeDomicilios" style="text;strokeColor=none;fillColor=none;align=left;verticalAlign=top;spacingLeft=4;spacingRight=4;overflow=hidden;rotatable=0;points=[[0,0.5],[1,0.5]];portConstraint=eastwest;whiteSpace=wrap;html=1;" parent="88" vertex="1">
                    <mxGeometry y="52" width="440" height="26" as="geometry"/>
                </mxCell>
                <mxCell id="90" value="" style="line;strokeWidth=1;fillColor=none;align=left;verticalAlign=middle;spacingTop=-1;spacingLeft=3;spacingRight=3;rotatable=0;labelPosition=right;points=[];portConstraint=eastwest;strokeColor=inherit;" parent="88" vertex="1">
                    <mxGeometry y="78" width="440" height="8" as="geometry"/>
                </mxCell>
                <mxCell id="91" value="- ChoferFactory()" style="text;strokeColor=none;fillColor=none;align=left;verticalAlign=top;spacingLeft=4;spacingRight=4;overflow=hidden;rotatable=0;points=[[0,0.5],[1,0.5]];portConstraint=eastwest;whiteSpace=wrap;html=1;" parent="88" vertex="1">
                    <mxGeometry y="86" width="440" height="26" as="geometry"/>
                </mxCell>
                <mxCell id="93" value="+ static ChoferFactory getInstancia()" style="text;strokeColor=none;fillColor=none;align=left;verticalAlign=top;spacingLeft=4;spacingRight=4;overflow=hidden;rotatable=0;points=[[0,0.5],[1,0.5]];portConstraint=eastwest;whiteSpace=wrap;html=1;" parent="88" vertex="1">
                    <mxGeometry y="112" width="440" height="26" as="geometry"/>
                </mxCell>
                <mxCell id="94" value="+ Chofer crearChofer(String nombre, String calle, int altura)" style="text;strokeColor=none;fillColor=none;align=left;verticalAlign=top;spacingLeft=4;spacingRight=4;overflow=hidden;rotatable=0;points=[[0,0.5],[1,0.5]];portConstraint=eastwest;whiteSpace=wrap;html=1;" parent="88" vertex="1">
                    <mxGeometry y="138" width="440" height="26" as="geometry"/>
                </mxCell>
                <mxCell id="95" value="+ Chofer crearChofer(String nombre, Categoria categoria, String calle, int altura)" style="text;strokeColor=none;fillColor=none;align=left;verticalAlign=top;spacingLeft=4;spacingRight=4;overflow=hidden;rotatable=0;points=[[0,0.5],[1,0.5]];portConstraint=eastwest;whiteSpace=wrap;html=1;" parent="88" vertex="1">
                    <mxGeometry y="164" width="440" height="26" as="geometry"/>
                </mxCell>
                <mxCell id="97" value="" style="endArrow=open;html=1;endSize=12;startArrow=diamondThin;startSize=14;startFill=1;edgeStyle=orthogonalEdgeStyle;align=left;verticalAlign=bottom;entryX=0;entryY=0.5;entryDx=0;entryDy=0;" parent="1" source="21" target="91" edge="1">
                    <mxGeometry x="-1" y="3" relative="1" as="geometry">
                        <mxPoint x="980" y="430" as="sourcePoint"/>
                        <mxPoint x="1070" y="410" as="targetPoint"/>
                    </mxGeometry>
                </mxCell>
                <mxCell id="98" value="DomicilioFactory" style="swimlane;fontStyle=1;align=center;verticalAlign=top;childLayout=stackLayout;horizontal=1;startSize=26;horizontalStack=0;resizeParent=1;resizeParentMax=0;resizeLast=0;collapsible=1;marginBottom=0;whiteSpace=wrap;html=1;" parent="1" vertex="1">
                    <mxGeometry x="1750" y="356" width="310" height="138" as="geometry"/>
                </mxCell>
                <mxCell id="99" value="- static DomicilioFactory _instancia" style="text;strokeColor=none;fillColor=none;align=left;verticalAlign=top;spacingLeft=4;spacingRight=4;overflow=hidden;rotatable=0;points=[[0,0.5],[1,0.5]];portConstraint=eastwest;whiteSpace=wrap;html=1;" parent="98" vertex="1">
                    <mxGeometry y="26" width="310" height="26" as="geometry"/>
                </mxCell>
                <mxCell id="100" value="" style="line;strokeWidth=1;fillColor=none;align=left;verticalAlign=middle;spacingTop=-1;spacingLeft=3;spacingRight=3;rotatable=0;labelPosition=right;points=[];portConstraint=eastwest;strokeColor=inherit;" parent="98" vertex="1">
                    <mxGeometry y="52" width="310" height="8" as="geometry"/>
                </mxCell>
                <mxCell id="101" value="- DomicilioFactory()" style="text;strokeColor=none;fillColor=none;align=left;verticalAlign=top;spacingLeft=4;spacingRight=4;overflow=hidden;rotatable=0;points=[[0,0.5],[1,0.5]];portConstraint=eastwest;whiteSpace=wrap;html=1;" parent="98" vertex="1">
                    <mxGeometry y="60" width="310" height="26" as="geometry"/>
                </mxCell>
                <mxCell id="102" value="+ static DomicilioFactory getInstancia()" style="text;strokeColor=none;fillColor=none;align=left;verticalAlign=top;spacingLeft=4;spacingRight=4;overflow=hidden;rotatable=0;points=[[0,0.5],[1,0.5]];portConstraint=eastwest;whiteSpace=wrap;html=1;" parent="98" vertex="1">
                    <mxGeometry y="86" width="310" height="26" as="geometry"/>
                </mxCell>
                <mxCell id="103" value="+ Domicilio generarDomicilio(String calle, int altura)" style="text;strokeColor=none;fillColor=none;align=left;verticalAlign=top;spacingLeft=4;spacingRight=4;overflow=hidden;rotatable=0;points=[[0,0.5],[1,0.5]];portConstraint=eastwest;whiteSpace=wrap;html=1;" parent="98" vertex="1">
                    <mxGeometry y="112" width="310" height="26" as="geometry"/>
                </mxCell>
                <mxCell id="104" value="" style="endArrow=open;html=1;endSize=12;startArrow=diamondThin;startSize=14;startFill=1;edgeStyle=orthogonalEdgeStyle;align=left;verticalAlign=bottom;exitX=1;exitY=0.5;exitDx=0;exitDy=0;entryX=-0.007;entryY=1.085;entryDx=0;entryDy=0;entryPerimeter=0;" parent="1" source="92" target="101" edge="1">
                    <mxGeometry x="-1" y="3" relative="1" as="geometry">
                        <mxPoint x="1570" y="440" as="sourcePoint"/>
                        <mxPoint x="1730" y="440" as="targetPoint"/>
                    </mxGeometry>
                </mxCell>
                <mxCell id="107" value="AcopladoFactory" style="swimlane;fontStyle=1;align=center;verticalAlign=top;childLayout=stackLayout;horizontal=1;startSize=26;horizontalStack=0;resizeParent=1;resizeParentMax=0;resizeLast=0;collapsible=1;marginBottom=0;whiteSpace=wrap;html=1;" parent="1" vertex="1">
                    <mxGeometry x="1970" y="-108" width="420" height="164" as="geometry"/>
                </mxCell>
                <mxCell id="108" value="- static AcopladoFactory _instancia" style="text;strokeColor=none;fillColor=none;align=left;verticalAlign=top;spacingLeft=4;spacingRight=4;overflow=hidden;rotatable=0;points=[[0,0.5],[1,0.5]];portConstraint=eastwest;whiteSpace=wrap;html=1;" parent="107" vertex="1">
                    <mxGeometry y="26" width="420" height="26" as="geometry"/>
                </mxCell>
                <mxCell id="125" value="- static int siguienteNumero = 0" style="text;strokeColor=none;fillColor=none;align=left;verticalAlign=top;spacingLeft=4;spacingRight=4;overflow=hidden;rotatable=0;points=[[0,0.5],[1,0.5]];portConstraint=eastwest;whiteSpace=wrap;html=1;" parent="107" vertex="1">
                    <mxGeometry y="52" width="420" height="26" as="geometry"/>
                </mxCell>
                <mxCell id="109" value="" style="line;strokeWidth=1;fillColor=none;align=left;verticalAlign=middle;spacingTop=-1;spacingLeft=3;spacingRight=3;rotatable=0;labelPosition=right;points=[];portConstraint=eastwest;strokeColor=inherit;" parent="107" vertex="1">
                    <mxGeometry y="78" width="420" height="8" as="geometry"/>
                </mxCell>
                <mxCell id="110" value="- AcopladoFactory()" style="text;strokeColor=none;fillColor=none;align=left;verticalAlign=top;spacingLeft=4;spacingRight=4;overflow=hidden;rotatable=0;points=[[0,0.5],[1,0.5]];portConstraint=eastwest;whiteSpace=wrap;html=1;" parent="107" vertex="1">
                    <mxGeometry y="86" width="420" height="26" as="geometry"/>
                </mxCell>
                <mxCell id="111" value="+ AcopladoFactory getInstancia()" style="text;strokeColor=none;fillColor=none;align=left;verticalAlign=top;spacingLeft=4;spacingRight=4;overflow=hidden;rotatable=0;points=[[0,0.5],[1,0.5]];portConstraint=eastwest;whiteSpace=wrap;html=1;" parent="107" vertex="1">
                    <mxGeometry y="112" width="420" height="26" as="geometry"/>
                </mxCell>
                <mxCell id="112" value="+ Acoplado generarAcoplado(&lt;span style=&quot;color: rgb(0, 0, 0);&quot;&gt;int tara, int cargaMaxima, boolean refrigerado)&lt;/span&gt;" style="text;strokeColor=none;fillColor=none;align=left;verticalAlign=top;spacingLeft=4;spacingRight=4;overflow=hidden;rotatable=0;points=[[0,0.5],[1,0.5]];portConstraint=eastwest;whiteSpace=wrap;html=1;" parent="107" vertex="1">
                    <mxGeometry y="138" width="420" height="26" as="geometry"/>
                </mxCell>
                <mxCell id="114" value="" style="endArrow=open;html=1;endSize=12;startArrow=diamondThin;startSize=14;startFill=1;edgeStyle=orthogonalEdgeStyle;align=left;verticalAlign=bottom;entryX=0;entryY=0.5;entryDx=0;entryDy=0;" parent="1" source="105" target="111" edge="1">
                    <mxGeometry x="-1" y="3" relative="1" as="geometry">
                        <mxPoint x="1799" y="-100" as="sourcePoint"/>
                        <mxPoint x="1890" y="-20" as="targetPoint"/>
                    </mxGeometry>
                </mxCell>
                <mxCell id="115" value="Colectivo" style="swimlane;fontStyle=1;align=center;verticalAlign=top;childLayout=stackLayout;horizontal=1;startSize=26;horizontalStack=0;resizeParent=1;resizeParentMax=0;resizeLast=0;collapsible=1;marginBottom=0;whiteSpace=wrap;html=1;" parent="1" vertex="1">
                    <mxGeometry x="-620" y="-100" width="290" height="164" as="geometry"/>
                </mxCell>
                <mxCell id="120" value="- int cantidadPasajeros" style="text;strokeColor=none;fillColor=none;align=left;verticalAlign=top;spacingLeft=4;spacingRight=4;overflow=hidden;rotatable=0;points=[[0,0.5],[1,0.5]];portConstraint=eastwest;whiteSpace=wrap;html=1;" parent="115" vertex="1">
                    <mxGeometry y="26" width="290" height="26" as="geometry"/>
                </mxCell>
                <mxCell id="117" value="" style="line;strokeWidth=1;fillColor=none;align=left;verticalAlign=middle;spacingTop=-1;spacingLeft=3;spacingRight=3;rotatable=0;labelPosition=right;points=[];portConstraint=eastwest;strokeColor=inherit;" parent="115" vertex="1">
                    <mxGeometry y="52" width="290" height="8" as="geometry"/>
                </mxCell>
                <mxCell id="123" value="+ Colectivo(String modelo)" style="text;strokeColor=none;fillColor=none;align=left;verticalAlign=top;spacingLeft=4;spacingRight=4;overflow=hidden;rotatable=0;points=[[0,0.5],[1,0.5]];portConstraint=eastwest;whiteSpace=wrap;html=1;" parent="115" vertex="1">
                    <mxGeometry y="60" width="290" height="26" as="geometry"/>
                </mxCell>
                <mxCell id="121" value="+ void setCantidadPasajeros(&lt;span style=&quot;color: rgb(0, 0, 0);&quot;&gt;int cantidadPasajeros)&lt;/span&gt;" style="text;strokeColor=none;fillColor=none;align=left;verticalAlign=top;spacingLeft=4;spacingRight=4;overflow=hidden;rotatable=0;points=[[0,0.5],[1,0.5]];portConstraint=eastwest;whiteSpace=wrap;html=1;" parent="115" vertex="1">
                    <mxGeometry y="86" width="290" height="26" as="geometry"/>
                </mxCell>
                <mxCell id="124" value="+ int getCantidadPasajeros(&lt;span style=&quot;color: rgb(0, 0, 0);&quot;&gt;)&lt;/span&gt;" style="text;strokeColor=none;fillColor=none;align=left;verticalAlign=top;spacingLeft=4;spacingRight=4;overflow=hidden;rotatable=0;points=[[0,0.5],[1,0.5]];portConstraint=eastwest;whiteSpace=wrap;html=1;" parent="115" vertex="1">
                    <mxGeometry y="112" width="290" height="26" as="geometry"/>
                </mxCell>
                <mxCell id="122" value="&lt;i&gt;+ boolean aceptoChofer(Chofer chofer)&lt;/i&gt;" style="text;strokeColor=none;fillColor=none;align=left;verticalAlign=top;spacingLeft=4;spacingRight=4;overflow=hidden;rotatable=0;points=[[0,0.5],[1,0.5]];portConstraint=eastwest;whiteSpace=wrap;html=1;" parent="115" vertex="1">
                    <mxGeometry y="138" width="290" height="26" as="geometry"/>
                </mxCell>
                <mxCell id="119" value="Extends" style="endArrow=block;endSize=16;endFill=0;html=1;entryX=0.344;entryY=1.017;entryDx=0;entryDy=0;entryPerimeter=0;exitX=0.5;exitY=0;exitDx=0;exitDy=0;" parent="1" source="115" target="5" edge="1">
                    <mxGeometry width="160" relative="1" as="geometry">
                        <mxPoint x="-420" y="-70" as="sourcePoint"/>
                        <mxPoint x="-260" y="-70" as="targetPoint"/>
                    </mxGeometry>
                </mxCell>
            </root>
        </mxGraphModel>
    </diagram>
</mxfile>